<svg xmlns="http://www.w3.org/2000/svg" width="24" height="24" style=""><rect id="backgroundrect" width="100%" height="100%" x="0" y="0" fill="none" stroke="none"/><g class="currentLayer" style=""><title>Layer 1</title><path fill="none" d="M0 0h24v24H0V0z" id="svg_1"/><path d="M20.47 5.63c.39.39.39 1.01 0 1.4L9.13 18.37c-.39.39-1.01.39-1.4 0l-4.2-4.2c-.39-.39-.39-1.01 0-1.4.39-.39 1.01-.39 1.4 0l3.5 3.5L19.07 5.63c.39-.39 1.01-.39 1.4 0zm-2.11-2.12l-9.93 9.93-2.79-2.79c-.78-.78-2.05-.78-2.83 0l-1.4 1.4c-.78.78-.78 2.05 0 2.83l5.6 5.6c.78.78 2.05.78 2.83 0L22.59 7.74c.78-.78.78-2.05 0-2.83l-1.4-1.4c-.79-.78-2.05-.78-2.83 0z" id="svg_2" class="" fill="#b6b6b6" fill-opacity="1"/></g></svg>